<svg width="380" height="169" viewBox="0 0 380 169" fill="none" xmlns="http://www.w3.org/2000/svg">
<rect width="378.717" height="56" transform="translate(0.374023 0.157104)" fill="white"/>
<rect x="0.374023" y="0.157104" width="378.717" height="56" fill="#EBF0FF"/>
<path d="M57.325 27.9331C57.325 30.4531 59.077 32.2171 61.561 32.2171C63.565 32.2171 65.077 31.1011 65.557 29.2771H63.301C62.953 29.9971 62.317 30.3571 61.537 30.3571C60.277 30.3571 59.413 29.4211 59.413 27.9331C59.413 26.4451 60.277 25.5091 61.537 25.5091C62.317 25.5091 62.953 25.8691 63.301 26.5891H65.557C65.077 24.7651 63.565 23.6371 61.561 23.6371C59.077 23.6371 57.325 25.4131 57.325 27.9331ZM69.3656 29.0491C69.3656 27.8971 69.9296 27.5611 70.9016 27.5611H71.4656V25.3891C70.5656 25.3891 69.8336 25.8691 69.3656 26.5771V25.4611H67.3136V32.1571H69.3656V29.0491ZM75.8984 27.0091C76.5824 27.0091 77.1584 27.4291 77.1584 28.1611H74.5904C74.7104 27.4171 75.2264 27.0091 75.8984 27.0091ZM79.1024 29.9371H76.9184C76.7504 30.2971 76.4264 30.5851 75.8504 30.5851C75.1904 30.5851 74.6504 30.1771 74.5784 29.3011H79.2224C79.2464 29.0971 79.2584 28.8931 79.2584 28.7011C79.2584 26.6611 77.8784 25.3651 75.9224 25.3651C73.9304 25.3651 72.5384 26.6851 72.5384 28.8091C72.5384 30.9331 73.9544 32.2531 75.9224 32.2531C77.5904 32.2531 78.7784 31.2451 79.1024 29.9371ZM80.4329 28.7971C80.4329 30.9091 81.7409 32.2531 83.3849 32.2531C84.3689 32.2531 85.0769 31.8091 85.4489 31.1971V32.1571H87.5009V23.2771H85.4489V26.3851C85.0409 25.7731 84.2729 25.3651 83.3849 25.3651C81.7409 25.3651 80.4329 26.6851 80.4329 28.7971ZM85.4489 28.8091C85.4489 29.8771 84.7649 30.4651 83.9849 30.4651C83.2169 30.4651 82.5209 29.8651 82.5209 28.7971C82.5209 27.7291 83.2169 27.1531 83.9849 27.1531C84.7649 27.1531 85.4489 27.7411 85.4489 28.8091ZM89.4855 32.1571H91.5375V25.4611H89.4855V32.1571ZM90.5175 24.7651C91.2375 24.7651 91.7295 24.2731 91.7295 23.6611C91.7295 23.0371 91.2375 22.5451 90.5175 22.5451C89.7855 22.5451 89.2935 23.0371 89.2935 23.6611C89.2935 24.2731 89.7855 24.7651 90.5175 24.7651ZM93.8485 29.8291C93.8485 31.5691 94.8205 32.1571 96.2125 32.1571H97.2565V30.4171H96.5245C96.0685 30.4171 95.9005 30.2491 95.9005 29.8531V27.1651H97.2445V25.4611H95.9005V23.8291H93.8485V25.4611H93.0325V27.1651H93.8485V29.8291ZM101.594 27.9331C101.594 30.4531 103.346 32.2171 105.83 32.2171C107.834 32.2171 109.346 31.1011 109.826 29.2771H107.57C107.222 29.9971 106.586 30.3571 105.806 30.3571C104.546 30.3571 103.682 29.4211 103.682 27.9331C103.682 26.4451 104.546 25.5091 105.806 25.5091C106.586 25.5091 107.222 25.8691 107.57 26.5891H109.826C109.346 24.7651 107.834 23.6371 105.83 23.6371C103.346 23.6371 101.594 25.4131 101.594 27.9331ZM111.175 28.7971C111.175 30.9091 112.483 32.2531 114.115 32.2531C115.111 32.2531 115.819 31.7971 116.191 31.2091V32.1571H118.243V25.4611H116.191V26.4091C115.831 25.8211 115.123 25.3651 114.127 25.3651C112.483 25.3651 111.175 26.6851 111.175 28.7971ZM116.191 28.8091C116.191 29.8771 115.507 30.4651 114.727 30.4651C113.959 30.4651 113.263 29.8651 113.263 28.7971C113.263 27.7291 113.959 27.1531 114.727 27.1531C115.507 27.1531 116.191 27.7411 116.191 28.8091ZM122.28 29.0491C122.28 27.8971 122.844 27.5611 123.816 27.5611H124.38V25.3891C123.48 25.3891 122.748 25.8691 122.28 26.5771V25.4611H120.228V32.1571H122.28V29.0491ZM125.452 28.7971C125.452 30.9091 126.76 32.2531 128.404 32.2531C129.388 32.2531 130.096 31.8091 130.468 31.1971V32.1571H132.52V23.2771H130.468V26.3851C130.06 25.7731 129.292 25.3651 128.404 25.3651C126.76 25.3651 125.452 26.6851 125.452 28.7971ZM130.468 28.8091C130.468 29.8771 129.784 30.4651 129.004 30.4651C128.236 30.4651 127.54 29.8651 127.54 28.7971C127.54 27.7291 128.236 27.1531 129.004 27.1531C129.784 27.1531 130.468 27.7411 130.468 28.8091ZM145.84 27.9211C145.84 25.3891 143.932 23.6131 141.532 23.6131C139.144 23.6131 137.2 25.3891 137.2 27.9211C137.2 30.4531 139.144 32.2411 141.532 32.2411C143.92 32.2411 145.84 30.4531 145.84 27.9211ZM139.3 27.9211C139.3 26.4211 140.164 25.4731 141.532 25.4731C142.876 25.4731 143.752 26.4211 143.752 27.9211C143.752 29.3971 142.876 30.3691 141.532 30.3691C140.164 30.3691 139.3 29.3971 139.3 27.9211ZM149.534 29.0491C149.534 27.8971 150.098 27.5611 151.07 27.5611H151.634V25.3891C150.734 25.3891 150.002 25.8691 149.534 26.5771V25.4611H147.482V32.1571H149.534V29.0491ZM159.313 23.7331H156.157V32.1571H159.313C162.001 32.1571 163.729 30.4411 163.729 27.9451C163.729 25.4371 162.001 23.7331 159.313 23.7331ZM158.209 30.3811V25.4851H159.181C160.729 25.4851 161.641 26.3971 161.641 27.9451C161.641 29.4931 160.729 30.3811 159.181 30.3811H158.209ZM168.328 27.0091C169.012 27.0091 169.588 27.4291 169.588 28.1611H167.02C167.14 27.4171 167.656 27.0091 168.328 27.0091ZM171.532 29.9371H169.348C169.18 30.2971 168.856 30.5851 168.28 30.5851C167.62 30.5851 167.08 30.1771 167.008 29.3011H171.652C171.676 29.0971 171.688 28.8931 171.688 28.7011C171.688 26.6611 170.308 25.3651 168.352 25.3651C166.36 25.3651 164.968 26.6851 164.968 28.8091C164.968 30.9331 166.384 32.2531 168.352 32.2531C170.02 32.2531 171.208 31.2451 171.532 29.9371ZM175.323 26.4091V23.2771H173.271V32.1571H175.323V31.2211C175.695 31.8091 176.403 32.2531 177.387 32.2531C179.031 32.2531 180.339 30.9091 180.339 28.7971C180.339 26.6851 179.043 25.3651 177.387 25.3651C176.427 25.3651 175.695 25.8091 175.323 26.4091ZM178.251 28.7971C178.251 29.8651 177.555 30.4651 176.775 30.4651C176.007 30.4651 175.311 29.8771 175.311 28.8091C175.311 27.7411 176.007 27.1531 176.775 27.1531C177.555 27.1531 178.251 27.7291 178.251 28.7971ZM181.915 32.1571H183.967V25.4611H181.915V32.1571ZM182.947 24.7651C183.667 24.7651 184.159 24.2731 184.159 23.6611C184.159 23.0371 183.667 22.5451 182.947 22.5451C182.215 22.5451 181.723 23.0371 181.723 23.6611C181.723 24.2731 182.215 24.7651 182.947 24.7651ZM186.278 29.8291C186.278 31.5691 187.25 32.1571 188.642 32.1571H189.686V30.4171H188.954C188.498 30.4171 188.33 30.2491 188.33 29.8531V27.1651H189.674V25.4611H188.33V23.8291H186.278V25.4611H185.462V27.1651H186.278V29.8291Z" fill="#223263"/>
<path d="M37.7409 21.4071H19.5625V34.9071H37.7409V21.4071Z" stroke="#40BFFF" stroke-width="2" stroke-linecap="round" stroke-linejoin="round"/>
<path d="M19.5625 25.9071H37.7409" stroke="#40BFFF" stroke-width="2" stroke-linecap="round" stroke-linejoin="round"/>
<rect x="342.614" y="20.6571" width="23" height="23" rx="2.5" stroke="#DFDEDE"/>
<path d="M352.192 36.9462L348.278 33.0555C348.169 32.9462 348.114 32.8055 348.114 32.6337C348.114 32.4618 348.169 32.3212 348.278 32.2118L349.146 31.368C349.255 31.243 349.388 31.1805 349.544 31.1805C349.716 31.1805 349.864 31.243 349.989 31.368L352.614 33.993L358.239 28.368C358.364 28.243 358.505 28.1805 358.661 28.1805C358.833 28.1805 358.974 28.243 359.083 28.368L359.95 29.2118C360.06 29.3212 360.114 29.4618 360.114 29.6337C360.114 29.8055 360.06 29.9462 359.95 30.0555L353.036 36.9462C352.927 37.0712 352.786 37.1337 352.614 37.1337C352.442 37.1337 352.302 37.0712 352.192 36.9462Z" fill="#40BFFF"/>
<rect width="378.717" height="56" transform="translate(0.374023 56.1571)" fill="white"/>
<rect x="0.374023" y="56.1571" width="378.717" height="56" fill="white"/>
<path d="M59.725 83.5011V81.3891H60.841C61.657 81.3891 62.005 81.7971 62.005 82.4451C62.005 83.0931 61.657 83.5011 60.841 83.5011H59.725ZM64.093 82.4451C64.093 80.8971 63.061 79.7331 60.997 79.7331H57.673V88.1571H59.725V85.1331H60.997C63.145 85.1331 64.093 83.8371 64.093 82.4451ZM65.2532 84.7971C65.2532 86.9091 66.5612 88.2531 68.1932 88.2531C69.1892 88.2531 69.8972 87.7971 70.2692 87.2091V88.1571H72.3212V81.4611H70.2692V82.4091C69.9092 81.8211 69.2012 81.3651 68.2052 81.3651C66.5612 81.3651 65.2532 82.6851 65.2532 84.7971ZM70.2692 84.8091C70.2692 85.8771 69.5852 86.4651 68.8052 86.4651C68.0372 86.4651 67.3412 85.8651 67.3412 84.7971C67.3412 83.7291 68.0372 83.1531 68.8052 83.1531C69.5852 83.1531 70.2692 83.7411 70.2692 84.8091ZM77.3898 85.6491L75.8418 81.4611H73.5498L76.2738 87.9291L74.7378 91.3371H76.9458L81.1458 81.4611H78.9258L77.3898 85.6491ZM84.4398 82.4091V81.4611H82.3878V91.3491H84.4398V87.2211C84.8118 87.7851 85.5198 88.2531 86.5038 88.2531C88.1478 88.2531 89.4558 86.9091 89.4558 84.7971C89.4558 82.6851 88.1478 81.3651 86.5038 81.3651C85.5198 81.3651 84.8118 81.8211 84.4398 82.4091ZM87.3678 84.7971C87.3678 85.8651 86.6718 86.4651 85.8918 86.4651C85.1238 86.4651 84.4278 85.8771 84.4278 84.8091C84.4278 83.7411 85.1238 83.1531 85.8918 83.1531C86.6718 83.1531 87.3678 83.7291 87.3678 84.7971ZM90.6243 84.7971C90.6243 86.9091 91.9323 88.2531 93.5643 88.2531C94.5603 88.2531 95.2683 87.7971 95.6403 87.2091V88.1571H97.6923V81.4611H95.6403V82.4091C95.2803 81.8211 94.5723 81.3651 93.5763 81.3651C91.9323 81.3651 90.6243 82.6851 90.6243 84.7971ZM95.6403 84.8091C95.6403 85.8771 94.9563 86.4651 94.1763 86.4651C93.4083 86.4651 92.7123 85.8651 92.7123 84.7971C92.7123 83.7291 93.4083 83.1531 94.1763 83.1531C94.9563 83.1531 95.6403 83.7411 95.6403 84.8091ZM99.6769 88.1571H101.729V79.2771H99.6769V88.1571Z" fill="#223263"/>
<path d="M25.975 79.0406L25.9775 79.0416C26.03 78.8201 26.2209 78.6571 26.4597 78.6571H33.2625C33.2711 78.6571 33.2797 78.6536 33.2882 78.6541C33.1433 76.2646 31.119 75.1571 29.3329 75.1571H22.5302C22.2908 75.1571 22.0999 75.3246 22.0479 75.5456L22.0454 75.5446L19.0717 89.0636L19.0783 89.0641C19.0712 89.0961 19.0586 89.1266 19.0586 89.1611C19.0586 89.4376 19.2843 89.6566 19.5635 89.6566H23.639L25.975 79.0406Z" fill="#1565C0"/>
<path d="M33.2891 78.654C33.3158 79.092 33.2866 79.5685 33.1734 80.095C32.5266 83.0925 30.1882 84.6525 27.2983 84.6525C27.2983 84.6525 25.5461 84.6525 25.1204 84.6525C24.8573 84.6525 24.7331 84.8055 24.6761 84.9225L23.7974 88.947L23.6434 89.6615H23.6404L23.0026 92.5595L23.0092 92.56C23.0021 92.592 22.9895 92.6225 22.9895 92.657C22.9895 92.9335 23.2152 93.157 23.4945 93.157H27.1973L27.2039 93.152C27.4422 93.1485 27.6316 92.98 27.681 92.758L27.6901 92.7505L28.6051 88.5425C28.6051 88.5425 28.6687 88.141 29.0949 88.141C29.5211 88.141 31.2046 88.141 31.2046 88.141C34.0945 88.141 36.4567 86.588 37.104 83.59C37.8322 80.21 35.3973 78.6665 33.2891 78.654Z" fill="#039BE5"/>
<path d="M26.4601 78.6569C26.2207 78.6569 26.0298 78.8199 25.9778 79.0414L25.9753 79.0404L24.675 84.9229C24.7321 84.8059 24.8563 84.6529 25.1194 84.6529C25.5456 84.6529 27.2579 84.6529 27.2579 84.6529C30.1478 84.6529 32.5256 83.0929 33.1724 80.0954C33.2861 79.5689 33.3148 79.0924 33.2881 78.6544C33.28 78.6534 33.2709 78.6569 33.2628 78.6569H26.4601Z" fill="#283593"/>
<rect x="342.614" y="70.9069" width="23" height="23" rx="2.5" stroke="#DFDEDE"/>
<rect width="378.717" height="56" transform="translate(0.374023 112.157)" fill="white"/>
<rect x="0.374023" y="112.157" width="378.717" height="56" fill="white"/>
<path d="M62.317 141.589C62.317 142.189 61.921 142.501 61.237 142.501H59.725V140.641H61.213C61.897 140.641 62.317 140.989 62.317 141.589ZM62.113 138.265C62.113 138.841 61.741 139.141 61.069 139.141H59.725V137.377H61.069C61.741 137.377 62.113 137.689 62.113 138.265ZM64.393 141.865C64.393 140.905 63.757 140.041 62.773 139.837C63.589 139.597 64.201 138.937 64.201 137.917C64.201 136.585 63.181 135.733 61.465 135.733H57.673V144.157H61.597C63.373 144.157 64.393 143.257 64.393 141.865ZM65.6751 140.797C65.6751 142.909 66.9831 144.253 68.6151 144.253C69.6111 144.253 70.3191 143.797 70.6911 143.209V144.157H72.7431V137.461H70.6911V138.409C70.3311 137.821 69.6231 137.365 68.6271 137.365C66.9831 137.365 65.6751 138.685 65.6751 140.797ZM70.6911 140.809C70.6911 141.877 70.0071 142.465 69.2271 142.465C68.4591 142.465 67.7631 141.865 67.7631 140.797C67.7631 139.729 68.4591 139.153 69.2271 139.153C70.0071 139.153 70.6911 139.741 70.6911 140.809ZM79.3476 144.157H81.3876V140.245C81.3876 138.445 80.3556 137.389 78.8076 137.389C77.9076 137.389 77.1876 137.785 76.7796 138.349V137.461H74.7276V144.157H76.7796V140.521C76.7796 139.609 77.2836 139.105 78.0636 139.105C78.8436 139.105 79.3476 139.609 79.3476 140.521V144.157ZM83.3136 144.157H85.3656V141.349L87.4056 144.157H89.9496L87.1416 140.821L89.9256 137.461H87.3936L85.3656 140.185V135.277H83.3136V144.157ZM93.8185 137.377H96.0505V144.157H98.1025V137.377H100.335V135.733H93.8185V137.377ZM103.916 141.049C103.916 139.897 104.48 139.561 105.452 139.561H106.016V137.389C105.116 137.389 104.384 137.869 103.916 138.577V137.461H101.864V144.157H103.916V141.049ZM107.089 140.797C107.089 142.909 108.397 144.253 110.029 144.253C111.025 144.253 111.733 143.797 112.105 143.209V144.157H114.157V137.461H112.105V138.409C111.745 137.821 111.037 137.365 110.041 137.365C108.397 137.365 107.089 138.685 107.089 140.797ZM112.105 140.809C112.105 141.877 111.421 142.465 110.641 142.465C109.873 142.465 109.177 141.865 109.177 140.797C109.177 139.729 109.873 139.153 110.641 139.153C111.421 139.153 112.105 139.741 112.105 140.809ZM120.762 144.157H122.802V140.245C122.802 138.445 121.77 137.389 120.222 137.389C119.322 137.389 118.602 137.785 118.194 138.349V137.461H116.142V144.157H118.194V140.521C118.194 139.609 118.698 139.105 119.478 139.105C120.258 139.105 120.762 139.609 120.762 140.521V144.157ZM130.164 142.213C130.128 139.717 126.504 140.473 126.504 139.405C126.504 139.081 126.768 138.889 127.248 138.889C127.824 138.889 128.172 139.189 128.232 139.645H130.128C129.996 138.325 129.036 137.365 127.308 137.365C125.556 137.365 124.584 138.301 124.584 139.441C124.584 141.901 128.232 141.121 128.232 142.201C128.232 142.501 127.956 142.741 127.428 142.741C126.864 142.741 126.444 142.429 126.396 141.961H124.368C124.464 143.257 125.664 144.253 127.452 144.253C129.132 144.253 130.164 143.377 130.164 142.213ZM132.123 144.157H134.175V139.165H135.279V137.461H134.175V137.401C134.175 136.693 134.451 136.453 135.243 136.501V134.761C133.203 134.653 132.123 135.517 132.123 137.269V137.461H131.379V139.165H132.123V144.157ZM139.695 139.009C140.379 139.009 140.955 139.429 140.955 140.161H138.387C138.507 139.417 139.023 139.009 139.695 139.009ZM142.899 141.937H140.715C140.547 142.297 140.223 142.585 139.647 142.585C138.987 142.585 138.447 142.177 138.375 141.301H143.019C143.043 141.097 143.055 140.893 143.055 140.701C143.055 138.661 141.675 137.365 139.719 137.365C137.727 137.365 136.335 138.685 136.335 140.809C136.335 142.933 137.751 144.253 139.719 144.253C141.387 144.253 142.575 143.245 142.899 141.937ZM146.69 141.049C146.69 139.897 147.254 139.561 148.226 139.561H148.79V137.389C147.89 137.389 147.158 137.869 146.69 138.577V137.461H144.638V144.157H146.69V141.049Z" fill="#223263"/>
<path d="M19.5625 134.532L28.6517 131.157L37.7409 134.532" stroke="#40BFFF" stroke-width="2" stroke-linecap="round" stroke-linejoin="round"/>
<path d="M19.5625 149.157H37.7409" stroke="#40BFFF" stroke-width="2" stroke-linecap="round" stroke-linejoin="round"/>
<path d="M28.6516 144.657V137.907" stroke="#40BFFF" stroke-width="2" stroke-linecap="round" stroke-linejoin="round"/>
<path d="M35.4685 144.657V137.907" stroke="#40BFFF" stroke-width="2" stroke-linecap="round" stroke-linejoin="round"/>
<path d="M21.8347 144.657V137.907" stroke="#40BFFF" stroke-width="2" stroke-linecap="round" stroke-linejoin="round"/>
<rect x="342.614" y="125.657" width="23" height="23" rx="2.5" stroke="#DFDEDE"/>
</svg>
